<svg xmlns="http://www.w3.org/2000/svg" width="880" height="330" viewBox="0 0 880 330" role="img" aria-label="Skill flow: Dataverse, SQL Server, Dynamics 365 and SharePoint data feeding C#, .NET, Azure and Power Automate logic, feeding Power Apps, Power BI, Teams and React experiences">
<defs><radialGradient id="bg" cx="50%" cy="40%" r="75%"><stop offset="0" stop-color="#161b2b"/><stop offset="1" stop-color="#0d1117"/></radialGradient></defs>
<rect width="880" height="330" rx="18" fill="url(#bg)"/>
<text x="150" y="30" text-anchor="middle" font-family="ui-monospace,SFMono-Regular,Consolas,monospace" font-size="12" letter-spacing="3" fill="#2CC4D0">DATA</text>
<text x="440" y="30" text-anchor="middle" font-family="ui-monospace,SFMono-Regular,Consolas,monospace" font-size="12" letter-spacing="3" fill="#4C9AFF">LOGIC</text>
<text x="730" y="30" text-anchor="middle" font-family="ui-monospace,SFMono-Regular,Consolas,monospace" font-size="12" letter-spacing="3" fill="#C060D0">EXPERIENCE</text>
<path d="M178.0,78 C295.0,78 295.0,78 412.0,78" fill="none" stroke="#2CC4D0" stroke-opacity=".18" stroke-width="1.5"/>
<circle r="3" fill="#2CC4D0"><animateMotion dur="2.6s" begin="-0.00s" repeatCount="indefinite" path="M178.0,78 C295.0,78 295.0,78 412.0,78"/><animate attributeName="opacity" values="0;1;1;0" keyTimes="0;.15;.85;1" dur="2.6s" begin="-0.00s" repeatCount="indefinite"/></circle>
<path d="M178.0,78 C295.0,78 295.0,150 412.0,150" fill="none" stroke="#2CC4D0" stroke-opacity=".18" stroke-width="1.5"/>
<circle r="3" fill="#2CC4D0"><animateMotion dur="3.0s" begin="-0.37s" repeatCount="indefinite" path="M178.0,78 C295.0,78 295.0,150 412.0,150"/><animate attributeName="opacity" values="0;1;1;0" keyTimes="0;.15;.85;1" dur="3.0s" begin="-0.37s" repeatCount="indefinite"/></circle>
<path d="M178.0,150 C295.0,150 295.0,150 412.0,150" fill="none" stroke="#2CC4D0" stroke-opacity=".18" stroke-width="1.5"/>
<circle r="3" fill="#2CC4D0"><animateMotion dur="3.4s" begin="-0.74s" repeatCount="indefinite" path="M178.0,150 C295.0,150 295.0,150 412.0,150"/><animate attributeName="opacity" values="0;1;1;0" keyTimes="0;.15;.85;1" dur="3.4s" begin="-0.74s" repeatCount="indefinite"/></circle>
<path d="M178.0,150 C295.0,150 295.0,222 412.0,222" fill="none" stroke="#2CC4D0" stroke-opacity=".18" stroke-width="1.5"/>
<circle r="3" fill="#2CC4D0"><animateMotion dur="2.6s" begin="-1.11s" repeatCount="indefinite" path="M178.0,150 C295.0,150 295.0,222 412.0,222"/><animate attributeName="opacity" values="0;1;1;0" keyTimes="0;.15;.85;1" dur="2.6s" begin="-1.11s" repeatCount="indefinite"/></circle>
<path d="M178.0,222 C295.0,222 295.0,222 412.0,222" fill="none" stroke="#2CC4D0" stroke-opacity=".18" stroke-width="1.5"/>
<circle r="3" fill="#2CC4D0"><animateMotion dur="3.0s" begin="-1.48s" repeatCount="indefinite" path="M178.0,222 C295.0,222 295.0,222 412.0,222"/><animate attributeName="opacity" values="0;1;1;0" keyTimes="0;.15;.85;1" dur="3.0s" begin="-1.48s" repeatCount="indefinite"/></circle>
<path d="M178.0,222 C295.0,222 295.0,294 412.0,294" fill="none" stroke="#2CC4D0" stroke-opacity=".18" stroke-width="1.5"/>
<circle r="3" fill="#2CC4D0"><animateMotion dur="3.4s" begin="-1.85s" repeatCount="indefinite" path="M178.0,222 C295.0,222 295.0,294 412.0,294"/><animate attributeName="opacity" values="0;1;1;0" keyTimes="0;.15;.85;1" dur="3.4s" begin="-1.85s" repeatCount="indefinite"/></circle>
<path d="M178.0,294 C295.0,294 295.0,78 412.0,78" fill="none" stroke="#2CC4D0" stroke-opacity=".18" stroke-width="1.5"/>
<circle r="3" fill="#2CC4D0"><animateMotion dur="2.6s" begin="-2.22s" repeatCount="indefinite" path="M178.0,294 C295.0,294 295.0,78 412.0,78"/><animate attributeName="opacity" values="0;1;1;0" keyTimes="0;.15;.85;1" dur="2.6s" begin="-2.22s" repeatCount="indefinite"/></circle>
<path d="M178.0,294 C295.0,294 295.0,294 412.0,294" fill="none" stroke="#2CC4D0" stroke-opacity=".18" stroke-width="1.5"/>
<circle r="3" fill="#2CC4D0"><animateMotion dur="3.0s" begin="-2.59s" repeatCount="indefinite" path="M178.0,294 C295.0,294 295.0,294 412.0,294"/><animate attributeName="opacity" values="0;1;1;0" keyTimes="0;.15;.85;1" dur="3.0s" begin="-2.59s" repeatCount="indefinite"/></circle>
<path d="M468.0,78 C585.0,78 585.0,78 702.0,78" fill="none" stroke="#4C9AFF" stroke-opacity=".18" stroke-width="1.5"/>
<circle r="3" fill="#4C9AFF"><animateMotion dur="3.4s" begin="-2.96s" repeatCount="indefinite" path="M468.0,78 C585.0,78 585.0,78 702.0,78"/><animate attributeName="opacity" values="0;1;1;0" keyTimes="0;.15;.85;1" dur="3.4s" begin="-2.96s" repeatCount="indefinite"/></circle>
<path d="M468.0,78 C585.0,78 585.0,150 702.0,150" fill="none" stroke="#4C9AFF" stroke-opacity=".18" stroke-width="1.5"/>
<circle r="3" fill="#4C9AFF"><animateMotion dur="2.6s" begin="-0.73s" repeatCount="indefinite" path="M468.0,78 C585.0,78 585.0,150 702.0,150"/><animate attributeName="opacity" values="0;1;1;0" keyTimes="0;.15;.85;1" dur="2.6s" begin="-0.73s" repeatCount="indefinite"/></circle>
<path d="M468.0,150 C585.0,150 585.0,150 702.0,150" fill="none" stroke="#4C9AFF" stroke-opacity=".18" stroke-width="1.5"/>
<circle r="3" fill="#4C9AFF"><animateMotion dur="3.0s" begin="-0.70s" repeatCount="indefinite" path="M468.0,150 C585.0,150 585.0,150 702.0,150"/><animate attributeName="opacity" values="0;1;1;0" keyTimes="0;.15;.85;1" dur="3.0s" begin="-0.70s" repeatCount="indefinite"/></circle>
<path d="M468.0,150 C585.0,150 585.0,222 702.0,222" fill="none" stroke="#4C9AFF" stroke-opacity=".18" stroke-width="1.5"/>
<circle r="3" fill="#4C9AFF"><animateMotion dur="3.4s" begin="-0.67s" repeatCount="indefinite" path="M468.0,150 C585.0,150 585.0,222 702.0,222"/><animate attributeName="opacity" values="0;1;1;0" keyTimes="0;.15;.85;1" dur="3.4s" begin="-0.67s" repeatCount="indefinite"/></circle>
<path d="M468.0,222 C585.0,222 585.0,222 702.0,222" fill="none" stroke="#4C9AFF" stroke-opacity=".18" stroke-width="1.5"/>
<circle r="3" fill="#4C9AFF"><animateMotion dur="2.6s" begin="-1.84s" repeatCount="indefinite" path="M468.0,222 C585.0,222 585.0,222 702.0,222"/><animate attributeName="opacity" values="0;1;1;0" keyTimes="0;.15;.85;1" dur="2.6s" begin="-1.84s" repeatCount="indefinite"/></circle>
<path d="M468.0,222 C585.0,222 585.0,294 702.0,294" fill="none" stroke="#4C9AFF" stroke-opacity=".18" stroke-width="1.5"/>
<circle r="3" fill="#4C9AFF"><animateMotion dur="3.0s" begin="-1.81s" repeatCount="indefinite" path="M468.0,222 C585.0,222 585.0,294 702.0,294"/><animate attributeName="opacity" values="0;1;1;0" keyTimes="0;.15;.85;1" dur="3.0s" begin="-1.81s" repeatCount="indefinite"/></circle>
<path d="M468.0,294 C585.0,294 585.0,78 702.0,78" fill="none" stroke="#4C9AFF" stroke-opacity=".18" stroke-width="1.5"/>
<circle r="3" fill="#4C9AFF"><animateMotion dur="3.4s" begin="-1.78s" repeatCount="indefinite" path="M468.0,294 C585.0,294 585.0,78 702.0,78"/><animate attributeName="opacity" values="0;1;1;0" keyTimes="0;.15;.85;1" dur="3.4s" begin="-1.78s" repeatCount="indefinite"/></circle>
<path d="M468.0,294 C585.0,294 585.0,294 702.0,294" fill="none" stroke="#4C9AFF" stroke-opacity=".18" stroke-width="1.5"/>
<circle r="3" fill="#4C9AFF"><animateMotion dur="2.6s" begin="-0.35s" repeatCount="indefinite" path="M468.0,294 C585.0,294 585.0,294 702.0,294"/><animate attributeName="opacity" values="0;1;1;0" keyTimes="0;.15;.85;1" dur="2.6s" begin="-0.35s" repeatCount="indefinite"/></circle>
<g transform="translate(122.0,50.0)"><title>Dataverse</title><g transform="scale(1.1667)"><rect width="48" height="48" rx="11" fill="#242938"/><svg x="8" y="8" width="32" height="32" viewBox="0 0 48 48" fill="none" stroke="#2CC4D0" stroke-width="2" stroke-linecap="round" stroke-linejoin="round"><ellipse cx="24" cy="11" rx="14" ry="5"/><path d="M10 11v13c0 2.8 6.3 5 14 5s14-2.2 14-5V11"/><path d="M10 24v13c0 2.8 6.3 5 14 5s14-2.2 14-5V24"/></svg></g><rect width="56" height="56" rx="13" fill="none" stroke="#2CC4D0" stroke-width="2" opacity="0"><animate attributeName="opacity" values="0;.9;0" keyTimes="0;.2;1" dur="5s" begin="0.00s" repeatCount="indefinite"/></rect></g>
<g transform="translate(122.0,122.0)"><title>SQL Server</title><g transform="scale(1.1667)"><rect width="48" height="48" rx="11" fill="#242938"/><svg x="8.0" y="8.0" width="32.0" height="32.0" viewBox="0 0 48 48"><path fill="#cfd8dc" d="M23.084 11.277c-1.633-2.449-1.986-5.722-2.063-7.067c-4.148.897-8.269 2.506-8.031 3.691c.03.149.218.328.53.502l-.488.873c-.596-.334-.931-.719-1.022-1.179c-.269-1.341 1.25-2.554 4.642-3.709a42 42 0 0 1 4.751-1.279l.597-.12V3.6c0 .042.026 4.288 1.916 7.123zM24.751 43H24.5c-8.192 0-17.309-2.573-18.386-6.879c-.657-2.63 1.492-5.536 6.214-8.401l.52.854c-4.249 2.579-6.296 5.172-5.763 7.305c.935 3.738 9.575 6.068 17.153 6.12c.901-1.347 5.742-9.26 2.979-19.873l.967-.252c3.149 12.092-3.218 20.837-3.282 20.924z"/><path fill="#cfd8dc" d="M9.931 39.306c-.539 0-.806-.059-.85-.07a.498.498 0 0 1-.233-.84c.072-.072 7.197-7.208 8.159-12.978l.986.164c-.827 4.964-5.715 10.623-7.656 12.707c1.939-.111 6.835-1.019 16.234-6.28c-7.335-.804-8.495-6.676-8.507-6.739l.983-.181c.047.246 1.226 6.011 9.244 6.011h.008a.5.5 0 0 1 .251.933c-11.235 6.509-16.683 7.272-18.619 7.273"/><path fill="#cfd8dc" d="M14.524 41.7a.499.499 0 0 1-.291-.907c.034-.025 1.813-1.338 3.706-4.228a20 20 0 0 1-2.196-1.137c-.888-.533-1.559-1.105-2.06-1.691c-2.57.678-4.942.946-7.025.769l.084-.996c1.876.159 4.009-.063 6.321-.64c-1.573-2.688-.129-5.356-.109-5.392l.874.487c-.067.122-1.265 2.37.249 4.633c2.201-.632 4.549-1.567 6.979-2.782a32 32 0 0 0 1.225-6.276a.5.5 0 0 1 .706-.406c.032.015 3.264 1.491 5.604 2.454a.5.5 0 0 1 .091.876a63 63 0 0 1-6.778 4.042a27.2 27.2 0 0 1-2.459 5.591c3.702 1.383 6.915 1.404 6.956 1.404a.5.5 0 0 1 .243.938c-4.54 2.522-11.767 3.232-12.072 3.261zm4.385-4.733c-1.04 1.614-2.062 2.773-2.826 3.53c1.998-.294 5.501-.938 8.408-2.139a23.7 23.7 0 0 1-5.582-1.391m-4.142-3.536c.393.392.883.775 1.49 1.14c.736.442 1.483.817 2.22 1.135a26 26 0 0 0 2.142-4.568c-2.021.962-3.983 1.73-5.852 2.293m8.435-9.102a34 34 0 0 1-.913 4.85a63 63 0 0 0 5.062-3.026a207 207 0 0 1-4.149-1.824M17.924 10.6a.5.5 0 0 1-.325-.12c-1.61-1.378-3.505-4.182-3.585-4.301a.5.5 0 0 1 .654-.718c.011.003.938.385 7.217 1.431a.499.499 0 0 1 .29.828c-1.758 1.953-3.979 2.813-4.073 2.848a.5.5 0 0 1-.178.032m-2.277-3.854c.631.849 1.54 1.996 2.372 2.769a11.2 11.2 0 0 0 2.744-1.798c-2.583-.441-4.159-.755-5.116-.971"/><path fill="#b71c1c" d="M21.843 24.4a.5.5 0 0 1-.497-.552c.292-2.749-3.926-3.852-3.969-3.862a.5.5 0 0 1-.23-.838c.207-.207 5.139-5.098 11.327-7.784a.5.5 0 0 1 .689.559c-1.186 5.744-6.71 12.044-6.944 12.309a.5.5 0 0 1-.376.168m-3.388-5.115c1.184.445 3.258 1.475 3.783 3.356c1.449-1.808 4.542-5.973 5.697-9.934c-4.387 2.11-8.081 5.292-9.48 6.578"/><path fill="#b71c1c" d="m13.079 28.36l-.475-.88c1.883-1.015 4.04-2.883 5.807-5.054c-1.504 1.03-2.365 1.735-2.392 1.758l-.639-.77c.039-.032 1.764-1.447 4.631-3.22c.787-1.266 1.392-2.568 1.703-3.816q.08-.318.136-.615c-1.925-.687-3.701-1.094-4.921-1.269a.5.5 0 0 1-.297-.835c.085-.092 2.116-2.268 4.654-3.463a.5.5 0 0 1 .581.114c.067.073 1.44 1.615 1.091 4.805c1.155.45 2.345.997 3.491 1.648c2.759-1.24 5.892-2.356 9.229-3.03a.51.51 0 0 1 .481.168c.117.14.149.333.083.503c-1.3 3.332-4.786 6.891-4.934 7.041a.503.503 0 0 1-.748-.04c-1.12-1.408-2.584-2.574-4.163-3.523a55 55 0 0 0-5.684 3.049c-2.02 3.153-5.069 6.048-7.634 7.429m14.413-10.964c1.29.832 2.491 1.81 3.484 2.948c.828-.898 2.815-3.168 3.942-5.422c-2.65.61-5.158 1.493-7.426 2.474m-4.693-1.274q-.05.245-.113.5c-.21.839-.544 1.701-.972 2.561a56 56 0 0 1 3.618-1.898a26 26 0 0 0-2.533-1.163m-4.751-2.45c1.111.218 2.48.574 3.941 1.086c.152-1.843-.346-2.972-.647-3.472c-1.376.718-2.581 1.728-3.294 2.386"/><path fill="#b71c1c" d="M18.05 18.5c0 4.38-3.65 7.86-6.28 10.4c-.44.43-1.93.5-1.93.5c.37-.38.79-.78 1.24-1.21c2.5-2.42 5.97-5.73 5.97-9.69c0-4.69-1.89-6.54-3.38-8.02c-.66-.67-1.22-1.31-1.56-2.09l.31-.13c.34.15.73.32 1.03.45c.24.35.56.69.93 1.06c1.53 1.53 3.67 3.63 3.67 8.73"/><path fill="#b71c1c" d="M42.935 19.794s-.605.086-.775.106c-8.76.97-17.8 3.49-22.97 5.56c-1.87.75-3.81 1.66-5.58 2.68c-.01.01-.02.01-.04.02c-1.04.6-3.57 1.84-5.62 2.93c3-3.19 8.62-5.65 10.86-6.55c5.07-2.03 13.78-4.48 22.35-5.53c-1.01-1.18-3.48-3.68-8.34-5.54c-2.84-1.1-7.16-1.72-10.97-2.27c-6.06-.87-9.51-1.45-9.84-3.1c-.07-.33-.02-.66.13-.98c.33.54.8.92 1.11 1.14c.15.1.26.16.3.18l.01.01c1.42.75 5.25 1.3 8.44 1.76c3.86.56 8.23 1.19 11.18 2.32c6.87 2.65 9.24 6.44 9.34 6.6c.09.15.415.664.415.664"/></svg></g><rect width="56" height="56" rx="13" fill="none" stroke="#2CC4D0" stroke-width="2" opacity="0"><animate attributeName="opacity" values="0;.9;0" keyTimes="0;.2;1" dur="5s" begin="0.25s" repeatCount="indefinite"/></rect></g>
<g transform="translate(122.0,194.0)"><title>Dynamics 365</title><g transform="scale(1.1667)"><rect width="48" height="48" rx="11" fill="#242938"/><svg x="8.0" y="8.0" width="32.0" height="32.0" viewBox="0 0 96 96"><defs><path id="d365SVGGrZ9feXr" fill="#fff" d="M0 0h96v96H0z"/></defs><g fill="none"><g clip-path="url(#d365SVGQCW6ddnZ)"><g clip-path="url(#d365SVGQCW6ddnZ)"><path fill="url(#d365SVGXbUCZcBz)" d="M8 8.648C8 1.485 12.793-.307 18.001.041C54.96 2.51 88 13.46 88 27.527v43.336c0-6.727-6.794-12.352-17.32-16.758c-1.598-.669-2.676-2.21-2.676-3.941V36.012c0-8.099-3.398-11.494-10-13.382s-10.008.204-10.008 7.643v7.096c0 4.986-3.252 8.268-8.985 9.204c-5.733.937-10.6 1.492-18.004 2.162C13.605 49.404 8 44.645 8 36.59z"/><path fill="url(#d365SVG9dsyndXN)" d="M8 8.648C8 1.485 12.793-.307 18.001.041C54.96 2.51 88 13.46 88 27.527v43.336c0-6.727-6.794-12.352-17.32-16.758c-1.598-.669-2.676-2.21-2.676-3.941V36.012c0-8.099-3.398-11.494-10-13.382s-10.008.204-10.008 7.643v7.096c0 4.986-3.252 8.268-8.985 9.204c-5.733.937-10.6 1.492-18.004 2.162C13.605 49.404 8 44.645 8 36.59z"/><path fill="url(#d365SVGX0fC2bxO)" d="M8 8.648C8 1.485 12.793-.307 18.001.041C54.96 2.51 88 13.46 88 27.527v43.336c0-6.727-6.794-12.352-17.32-16.758c-1.598-.669-2.676-2.21-2.676-3.941V36.012c0-8.099-3.398-11.494-10-13.382s-10.008.204-10.008 7.643v7.096c0 4.986-3.252 8.268-8.985 9.204c-5.733.937-10.6 1.492-18.004 2.162C13.605 49.404 8 44.645 8 36.59z"/><path fill="url(#d365SVGrvmsQeWN)" d="M88 27.527c0 11.534-21.173 20.502-48 24.93c-6.752 1.114-12 4.272-12 11.32v21.525c0 10.209 6.144 11.553 13.998 10.209C70.195 90.685 88 80.77 88 70.827z"/><path fill="url(#d365SVGlW4nLbMj)" fill-opacity=".5" d="M88 27.527c0 11.534-21.173 20.502-48 24.93c-6.752 1.114-12 4.272-12 11.32v21.525c0 10.209 6.144 11.553 13.998 10.209C70.195 90.685 88 80.77 88 70.827z"/><path fill="url(#d365SVG3Kkt8deG)" d="M68 62.357c0 8.383-2.929 11.352-9.996 13.367C51.831 77.484 48 76.807 48 68.077V50.964c7.402-1.547 14.195-3.457 20-5.686z" opacity=".5"/></g></g><defs><linearGradient id="d365SVGXbUCZcBz" x1="18.133" x2="47.183" y1="2.115" y2="60.955" gradientUnits="userSpaceOnUse"><stop stop-color="#367af2"/><stop offset=".287" stop-color="#2764e7"/><stop offset=".66" stop-color="#4a43cb"/><stop offset="1" stop-color="#6d37cd"/></linearGradient><linearGradient id="d365SVGrvmsQeWN" x1="67.474" x2="67.474" y1="92.971" y2="36.947" gradientUnits="userSpaceOnUse"><stop stop-color="#2052cb"/><stop offset=".406" stop-color="#2764e7"/><stop offset="1" stop-color="#bd96ff"/></linearGradient><linearGradient id="d365SVGlW4nLbMj" x1="73.263" x2="88" y1="49.838" y2="49.838" gradientUnits="userSpaceOnUse"><stop stop-color="#367af2" stop-opacity="0"/><stop offset=".489" stop-color="#4ba3f3" stop-opacity=".377"/><stop offset="1" stop-color="#6fe8f5"/></linearGradient><linearGradient id="d365SVG3Kkt8deG" x1="57.679" x2="57.679" y1="45.478" y2="74.14" gradientUnits="userSpaceOnUse"><stop stop-color="#ceb0ff"/><stop offset="1" stop-color="#4894fe"/></linearGradient><radialGradient id="d365SVG9dsyndXN" cx="0" cy="0" r="1" gradientTransform="matrix(17.6607 52.344 -119.087 40.8452 39.94 1.596)" gradientUnits="userSpaceOnUse"><stop offset=".62" stop-color="#5750e2" stop-opacity="0"/><stop offset="1" stop-color="#4b20a0"/></radialGradient><radialGradient id="d365SVGX0fC2bxO" cx="0" cy="0" r="1" gradientTransform="matrix(0 -53.3687 95.7281 0 30.5 50.687)" gradientUnits="userSpaceOnUse"><stop offset=".55" stop-color="#2764e7" stop-opacity="0"/><stop offset="1" stop-color="#ac80ff"/></radialGradient><clipPath id="d365SVGQCW6ddnZ"><use href="#d365SVGGrZ9feXr"/></clipPath></defs></g></svg></g><rect width="56" height="56" rx="13" fill="none" stroke="#2CC4D0" stroke-width="2" opacity="0"><animate attributeName="opacity" values="0;.9;0" keyTimes="0;.2;1" dur="5s" begin="0.50s" repeatCount="indefinite"/></rect></g>
<g transform="translate(122.0,266.0)"><title>SharePoint</title><g transform="scale(1.1667)"><rect width="48" height="48" rx="11" fill="#242938"/><svg x="9.6" y="8.0" width="28.8" height="32.0" viewBox="0 0 450 500"><defs><radialGradient id="spSVGb3yuKePu" cx="-777.14" cy="770.84" r=".9" fx="-777.14" fy="770.84" gradientTransform="rotate(-112.48 19687.711 -244209.326)scale(256.36 -461.43)skewX(.11)" gradientUnits="userSpaceOnUse"><stop offset=".29" stop-color="#003b5d"/><stop offset=".61" stop-color="#004a6c" stop-opacity=".69"/><stop offset=".97" stop-color="#006f94" stop-opacity="0"/></radialGradient><radialGradient id="spSVGOllGILPd" cx="-785.23" cy="766.9" r=".9" fx="-785.23" fy="766.9" gradientTransform="rotate(-112.09 15840.765 -206193.639)scale(216.37 -388.98)skewX(.11)" gradientUnits="userSpaceOnUse"><stop offset=".26" stop-color="#002a42"/><stop offset=".61" stop-color="#004261" stop-opacity=".69"/><stop offset=".97" stop-color="#006f94" stop-opacity="0"/></radialGradient><radialGradient id="spSVGTMUc7buj" cx="-739.84" cy="872.71" r=".9" fx="-739.84" fy="872.71" gradientTransform="matrix(-102.53313 149.24243 149.46801 102.38138 -206024.5 21094.22)" gradientUnits="userSpaceOnUse"><stop offset="0" stop-color="#78edff"/><stop offset="1" stop-color="#2ccfca" stop-opacity="0"/></radialGradient><radialGradient id="spSVGuPou6BTB" cx="-746.38" cy="743.75" r=".9" fx="-746.38" fy="743.75" gradientTransform="rotate(-70.77 98456.442 -205747.412)scale(171.87 -310.04)skewX(-.1)" gradientUnits="userSpaceOnUse"><stop offset="0" stop-color="#003b5d"/><stop offset=".49" stop-color="#004c6c" stop-opacity=".72"/><stop offset=".97" stop-color="#007a86" stop-opacity="0"/></radialGradient><radialGradient id="spSVGmU78KeBF" cx="-741.46" cy="888.91" r=".9" fx="-741.46" fy="888.91" gradientTransform="matrix(-85.44333 124.36732 124.55255 85.31498 -173675.69 16546.9)" gradientUnits="userSpaceOnUse"><stop offset="0" stop-color="#78edff"/><stop offset="1" stop-color="#2ccfca" stop-opacity="0"/></radialGradient><radialGradient id="spSVGvjgQ55VR" cx="-686.6" cy="804.18" r=".9" fx="-686.6" fy="804.18" gradientTransform="rotate(44.96 -414290.4 134345.45)scale(314.99 -314.99)skewX(.09)" gradientUnits="userSpaceOnUse"><stop offset=".06" stop-color="#00b6bd"/><stop offset=".89" stop-color="#00495c"/></radialGradient><radialGradient id="spSVGfZKJmbVJ" cx="-686.07" cy="864.41" r=".9" fx="-686.07" fy="864.41" gradientTransform="matrix(0 155.79 177.62 0 -153439.14 107241.64)" gradientUnits="userSpaceOnUse"><stop offset=".57" stop-color="#1e8581" stop-opacity="0"/><stop offset=".97" stop-color="#1ecbe6"/></radialGradient><linearGradient id="spSVGcUcj4drm" x1="92.18" x2="292.29" y1="477.48" y2="214.84" gradientTransform="matrix(1 0 0 -1 0 502)" gradientUnits="userSpaceOnUse"><stop offset="0" stop-color="#00e3df"/><stop offset=".41" stop-color="#0097a8"/><stop offset="1" stop-color="#007791"/></linearGradient><linearGradient id="spSVGvFbiecLl" x1="245.14" x2="411.9" y1="331.57" y2="112.7" gradientTransform="matrix(1 0 0 -1 0 502)" gradientUnits="userSpaceOnUse"><stop offset="0" stop-color="#00e3df"/><stop offset=".48" stop-color="#00a2b8"/><stop offset=".95" stop-color="#00637c"/></linearGradient><linearGradient id="spSVGk60aSd8E" x1="153.42" x2="259.71" y1="214.53" y2="1.97" gradientTransform="matrix(1 0 0 -1 0 502)" gradientUnits="userSpaceOnUse"><stop offset=".05" stop-color="#75fff6"/><stop offset=".51" stop-color="#00c7d1"/><stop offset=".96" stop-color="#0096ad"/></linearGradient><linearGradient id="spSVG8TLMpd2X" x1="292.44" x2="235.63" y1="-12.27" y2="67.45" gradientTransform="matrix(1 0 0 -1 0 502)" gradientUnits="userSpaceOnUse"><stop offset=".26" stop-color="#0e5a5d"/><stop offset=".54" stop-color="#126c6b" stop-opacity=".69"/><stop offset=".97" stop-color="#1c948a" stop-opacity="0"/></linearGradient></defs><path fill="url(#spSVGcUcj4drm)" d="M187.79 300c82.97 0 150.23-67.16 150.23-150S270.75 0 187.79 0S37.56 67.16 37.56 150s67.26 150 150.23 150"/><path fill="url(#spSVGb3yuKePu)" fill-opacity=".2" d="M187.79 300c82.97 0 150.23-67.16 150.23-150S270.75 0 187.79 0S37.56 67.16 37.56 150s67.26 150 150.23 150"/><path fill="url(#spSVGOllGILPd)" fill-opacity=".31" d="M187.79 300c82.97 0 150.23-67.16 150.23-150S270.75 0 187.79 0S37.56 67.16 37.56 150s67.26 150 150.23 150"/><path fill="url(#spSVGTMUc7buj)" fill-opacity=".7" d="M187.79 300c82.97 0 150.23-67.16 150.23-150S270.75 0 187.79 0S37.56 67.16 37.56 150s67.26 150 150.23 150"/><path fill="url(#spSVGvFbiecLl)" d="M324.81 400C393.95 400 450 344.04 450 275s-56.05-125-125.19-125s-125.19 55.96-125.19 125s56.05 125 125.19 125"/><path fill="url(#spSVGuPou6BTB)" fill-opacity=".5" d="M324.81 400C393.95 400 450 344.04 450 275s-56.05-125-125.19-125s-125.19 55.96-125.19 125s56.05 125 125.19 125"/><path fill="url(#spSVGmU78KeBF)" fill-opacity=".7" d="M324.81 400C393.95 400 450 344.04 450 275s-56.05-125-125.19-125s-125.19 55.96-125.19 125s56.05 125 125.19 125"/><path fill="url(#spSVGk60aSd8E)" d="M206.56 500c58.77 0 106.41-47.57 106.41-106.25S265.33 287.5 206.56 287.5s-106.41 47.57-106.41 106.25S147.79 500 206.56 500"/><path fill="url(#spSVG8TLMpd2X)" fill-opacity=".32" d="M206.56 500c58.77 0 106.41-47.57 106.41-106.25S265.33 287.5 206.56 287.5s-106.41 47.57-106.41 106.25S147.79 500 206.56 500"/><rect width="200.3" height="200" y="237.5" fill="url(#spSVGvjgQ55VR)" rx="40.66" ry="40.66"/><rect width="200.3" height="200" y="237.5" fill="url(#spSVGfZKJmbVJ)" fill-opacity=".6" rx="40.66" ry="40.66"/><path fill="#fff" d="m57 372.15l21.72-11.32c2.45 4.94 5.64 8.58 9.58 10.92c3.99 2.34 8.36 3.51 13.09 3.51c5.27 0 9.29-1.06 12.05-3.19c2.77-2.18 4.15-5.45 4.15-9.8q0-5.1-3.99-8.61c-2.66-2.39-7.37-4.2-14.13-5.42c-12.88-2.34-22.25-6.43-28.1-12.28q-8.7-8.775-8.7-21.84c0-10.84 3.83-19.5 11.5-25.99c7.66-6.48 17.78-9.72 30.34-9.72c8.46 0 15.91 1.73 22.35 5.18s11.55 8.4 15.33 14.83l-21.23 10.92c-2.34-3.61-4.87-6.22-7.58-7.81c-2.72-1.65-6.12-2.47-10.22-2.47c-4.9 0-8.62 1.06-11.18 3.19c-2.5 2.13-3.75 4.89-3.75 8.29c0 2.92 1.2 5.5 3.59 7.73c2.45 2.18 7.34 3.96 14.69 5.34c12.35 2.34 21.56 6.59 27.62 12.76c6.12 6.11 9.18 13.84 9.18 23.2c0 11.37-3.65 20.38-10.94 27.02s-17.7 9.96-31.21 9.96c-9.79 0-18.63-2.13-26.5-6.38c-7.82-4.3-13.7-10.31-17.64-18.02Z"/></svg></g><rect width="56" height="56" rx="13" fill="none" stroke="#2CC4D0" stroke-width="2" opacity="0"><animate attributeName="opacity" values="0;.9;0" keyTimes="0;.2;1" dur="5s" begin="0.75s" repeatCount="indefinite"/></rect></g>
<g transform="translate(412.0,50.0)"><title>C#</title><svg xmlns="http://www.w3.org/2000/svg" width="56" height="56" fill="none" viewBox="0 0 256 256"><rect width="256" height="256" fill="#953CAD" rx="60"/><path fill="#fff" d="M195.436 100.668V114.142H208.91V100.668H215.647V114.142H229.12V120.879H215.647V134.352H229.12V141.089H215.647V154.563H208.91V141.089H195.436V154.563H188.699V141.089H175.226V134.352H188.699V120.879H175.226V114.142H188.699V100.668H195.436ZM208.91 120.879H195.436V134.352H208.91V120.879Z"/><path fill="#fff" d="M122.001 33C157.144 33 187.828 52.0863 204.262 80.4561L204.102 80.183L162.753 103.991C154.607 90.1977 139.672 80.8892 122.54 80.6975L122.001 80.6945C95.875 80.6945 74.6945 101.874 74.6945 127.999C74.6945 136.543 76.9723 144.552 80.9335 151.469C89.0876 165.704 104.416 175.306 122.001 175.306C139.693 175.306 155.109 165.582 163.222 151.195L163.025 151.54L204.311 175.458C188.057 203.588 157.794 222.615 123.059 222.994L122.001 223C86.746 223 55.9753 203.796 39.582 175.276C31.5791 161.353 27 145.212 27 127.999C27 75.5334 69.5323 33 122.001 33Z"/></svg><rect width="56" height="56" rx="13" fill="none" stroke="#4C9AFF" stroke-width="2" opacity="0"><animate attributeName="opacity" values="0;.9;0" keyTimes="0;.2;1" dur="5s" begin="0.90s" repeatCount="indefinite"/></rect></g>
<g transform="translate(412.0,122.0)"><title>.NET</title><svg xmlns="http://www.w3.org/2000/svg" width="56" height="56" fill="none" viewBox="0 0 256 256"><rect width="256" height="256" fill="#512BD4" rx="60"/><path fill="#fff" d="M24.0522 168.943C21.8155 168.943 19.9143 168.212 18.3486 166.749C16.7829 165.248 16 163.466 16 161.402C16 159.301 16.7829 157.5 18.3486 155.999C19.9143 154.499 21.8155 153.748 24.0522 153.748C26.3262 153.748 28.246 154.499 29.8118 155.999C31.4147 157.5 32.2162 159.301 32.2162 161.402C32.2162 163.466 31.4147 165.248 29.8118 166.749C28.246 168.212 26.3262 168.943 24.0522 168.943Z"/><path fill="#fff" d="M113.467 167.705H98.9285L60.625 108.387C59.6558 106.886 58.8539 105.328 58.2205 103.715H57.8848C58.1831 105.441 58.3322 109.137 58.3322 114.802V167.705H45.4707V87H60.96L97.9781 144.912C99.5439 147.314 100.55 148.964 100.998 149.865H101.221C100.849 147.726 100.662 144.106 100.662 139.002V87H113.467V167.705Z"/><path fill="#fff" d="M176.098 167.705H131.084V87H174.309V98.3688H144.393V121.218H171.961V132.53H144.393V156.393H176.098V167.705Z"/><path fill="#fff" d="M240.071 98.3688H217.033V167.705H203.724V98.3688H180.742V87H240.071V98.3688Z"/></svg><rect width="56" height="56" rx="13" fill="none" stroke="#4C9AFF" stroke-width="2" opacity="0"><animate attributeName="opacity" values="0;.9;0" keyTimes="0;.2;1" dur="5s" begin="1.15s" repeatCount="indefinite"/></rect></g>
<g transform="translate(412.0,194.0)"><title>Azure</title><svg xmlns="http://www.w3.org/2000/svg" width="56" height="56" fill="none" viewBox="0 0 256 256"><rect width="256" height="256" fill="#242938" rx="60"/><path fill="url(#sazurepaint0_linear_159_730)" d="M94.6743 34.0023H153.856L92.4196 216.032C91.7882 217.902 90.586 219.528 88.9824 220.679C87.3788 221.831 85.4545 222.45 83.4803 222.451H37.4223C35.9265 222.451 34.4522 222.095 33.1213 221.412C31.7904 220.729 30.6411 219.74 29.7687 218.525C28.8962 217.31 28.3256 215.905 28.104 214.425C27.8824 212.946 28.0162 211.435 28.4943 210.018L85.7327 40.4209C86.3639 38.5497 87.5662 36.9236 89.1703 35.7717C90.7744 34.6198 92.6995 34.0001 94.6743 34V34.0023Z"/><path fill="#0078D4" d="M180.674 156.095H86.8261C85.9536 156.094 85.101 156.356 84.3795 156.847C83.6579 157.337 83.1008 158.034 82.7807 158.845C82.4606 159.657 82.3923 160.546 82.5848 161.397C82.7773 162.248 83.2217 163.022 83.86 163.616L144.165 219.903C145.92 221.54 148.232 222.451 150.633 222.451H203.774L180.674 156.095Z"/><path fill="url(#sazurepaint1_linear_159_730)" d="M94.6745 34.0023C92.6781 33.9946 90.7315 34.6255 89.1192 35.8028C87.5068 36.98 86.3131 38.642 85.7125 40.5459L28.5649 209.863C28.0546 211.286 27.8944 212.81 28.0979 214.308C28.3013 215.805 28.8624 217.232 29.7337 218.466C30.6051 219.701 31.7609 220.708 33.1036 221.401C34.4463 222.095 35.9362 222.455 37.4474 222.451H84.6942C86.4539 222.136 88.0986 221.36 89.4603 220.202C90.822 219.044 91.8519 217.546 92.4448 215.859L103.841 182.273L144.549 220.241C146.255 221.652 148.395 222.433 150.608 222.451H203.551L180.331 156.096L112.642 156.112L154.07 34.0023H94.6745Z"/><path fill="url(#sazurepaint2_linear_159_730)" d="M170.264 40.4118C169.634 38.5435 168.434 36.9201 166.832 35.7702C165.23 34.6204 163.308 34.002 161.336 34.0022H95.3792C97.3508 34.0023 99.2727 34.6208 100.874 35.7707C102.476 36.9205 103.677 38.5437 104.307 40.4118L161.548 210.016C162.026 211.433 162.16 212.944 161.939 214.424C161.718 215.904 161.147 217.309 160.275 218.525C159.402 219.74 158.253 220.73 156.922 221.413C155.591 222.096 154.116 222.453 152.62 222.453H218.579C220.075 222.452 221.55 222.096 222.88 221.413C224.211 220.729 225.36 219.739 226.233 218.524C227.105 217.308 227.675 215.903 227.896 214.423C228.118 212.944 227.984 211.433 227.505 210.016L170.264 40.4118Z"/><defs><linearGradient id="sazurepaint0_linear_159_730" x1="116.244" x2="54.783" y1="47.967" y2="229.54" gradientUnits="userSpaceOnUse"><stop stop-color="#114A8B"/><stop offset="1" stop-color="#0669BC"/></linearGradient><linearGradient id="sazurepaint1_linear_159_730" x1="135.444" x2="121.227" y1="132.585" y2="137.392" gradientUnits="userSpaceOnUse"><stop stop-opacity=".3"/><stop offset=".071" stop-opacity=".2"/><stop offset=".321" stop-opacity=".1"/><stop offset=".623" stop-opacity=".05"/><stop offset="1" stop-opacity="0"/></linearGradient><linearGradient id="sazurepaint2_linear_159_730" x1="127.625" x2="195.091" y1="42.671" y2="222.414" gradientUnits="userSpaceOnUse"><stop stop-color="#3CCBF4"/><stop offset="1" stop-color="#2892DF"/></linearGradient></defs></svg><rect width="56" height="56" rx="13" fill="none" stroke="#4C9AFF" stroke-width="2" opacity="0"><animate attributeName="opacity" values="0;.9;0" keyTimes="0;.2;1" dur="5s" begin="1.40s" repeatCount="indefinite"/></rect></g>
<g transform="translate(412.0,266.0)"><title>Power Automate</title><g transform="scale(1.1667)"><rect width="48" height="48" rx="11" fill="#242938"/><svg x="8" y="8" width="32" height="32" viewBox="0 0 48 48"><path fill="none" stroke="#4C9AFF" stroke-width="2" stroke-linecap="round" stroke-linejoin="round" d="M7.92 8.5a1.5 1.5 0 0 0-1.172 2.438L17.199 24L6.748 37.062A1.5 1.5 0 0 0 7.92 39.5h20.959a1.5 1.5 0 0 0 1.172-.563l11.2-14a1.5 1.5 0 0 0 0-1.875l-11.2-14a1.5 1.5 0 0 0-1.172-.563zm21.564.145L17.2 24m18.6-7.75L17.196 39.5"/></svg></g><rect width="56" height="56" rx="13" fill="none" stroke="#4C9AFF" stroke-width="2" opacity="0"><animate attributeName="opacity" values="0;.9;0" keyTimes="0;.2;1" dur="5s" begin="1.65s" repeatCount="indefinite"/></rect></g>
<g transform="translate(702.0,50.0)"><title>Power Apps</title><g transform="scale(1.1667)"><rect width="48" height="48" rx="11" fill="#242938"/><svg x="8" y="8" width="32" height="32" viewBox="0 0 48 48"><path fill="none" stroke="#C060D0" stroke-width="2" stroke-linecap="round" stroke-linejoin="round" d="M23.92 8.059L22.433 6.57a2 2 0 0 0-2.93.11L4.852 23.704a2 2 0 0 0 .103 2.719l14.942 14.941a2 2 0 0 0 2.93-.11l1.186-1.379"/><path fill="none" stroke="#C060D0" stroke-width="2" stroke-linecap="round" stroke-linejoin="round" d="m20.165 15.403l6.175 6.174a2 2 0 0 1 .102 2.72l-7.118 8.272a2 2 0 0 0 .102 2.718l6.142 6.143a2 2 0 0 0 2.93-.11l14.65-17.024a2 2 0 0 0-.103-2.718L28.103 6.636a2 2 0 0 0-2.93.11l-5.11 5.938a2 2 0 0 0 .102 2.718"/><path fill="none" stroke="#C060D0" stroke-width="2" stroke-linecap="round" stroke-linejoin="round" d="m39.24 28.836l-1.206 1.399a2 2 0 0 1-2.928.108l-6.141-6.141a2 2 0 0 1-.102-2.719l5.11-5.938a2 2 0 0 1 2.93-.11l1.35 1.351"/></svg></g><rect width="56" height="56" rx="13" fill="none" stroke="#C060D0" stroke-width="2" opacity="0"><animate attributeName="opacity" values="0;.9;0" keyTimes="0;.2;1" dur="5s" begin="1.80s" repeatCount="indefinite"/></rect></g>
<g transform="translate(702.0,122.0)"><title>Power BI</title><g transform="scale(1.1667)"><rect width="48" height="48" rx="11" fill="#242938"/><svg x="12.0" y="8.0" width="24.0" height="32.0" viewBox="0 0 256 342"><defs><linearGradient id="pbiSVGCdghnblF" x1="42.593%" x2="57.245%" y1="0%" y2="93.174%"><stop offset="0%" stop-color="#e6ad10"/><stop offset="100%" stop-color="#c87e0e"/></linearGradient><linearGradient id="pbiSVG5tapKdof" x1="40.122%" x2="62.028%" y1="0%" y2="95.592%"><stop offset="0%" stop-color="#f6d751"/><stop offset="100%" stop-color="#e6ad10"/></linearGradient><linearGradient id="pbiSVGRvjwscVp" x1="27.774%" x2="55.012%" y1="0%" y2="96.828%"><stop offset="0%" stop-color="#f9e589"/><stop offset="100%" stop-color="#f6d751"/></linearGradient><path id="pbiSVGvAvgNc4T" d="M142.222 14.222C142.222 6.368 148.59 0 156.444 0h85.334C249.632 0 256 6.368 256 14.222v312.89c0 7.854-6.368 14.221-14.222 14.221H14.222C6.368 341.333 0 334.966 0 327.111V184.89c0-7.855 6.368-14.222 14.222-14.222h56.89V99.556c0-7.855 6.367-14.223 14.222-14.223h56.888z"/></defs><mask id="pbiSVGvCV5wclL" fill="#fff"><use href="#pbiSVGvAvgNc4T"/></mask><path fill="url(#pbiSVGCdghnblF)" d="M256 0v341.333H142.222V0z" mask="url(#pbiSVGvCV5wclL)"/><path fill-opacity=".2" d="M184.889 100.978v241.778H71.11v-256h99.556c7.854 0 14.222 6.367 14.222 14.222" mask="url(#pbiSVGvCV5wclL)"/><path fill-opacity=".18" d="M184.889 106.667v241.777H71.11v-256h99.556c7.854 0 14.222 6.368 14.222 14.223" mask="url(#pbiSVGvCV5wclL)"/><path fill="url(#pbiSVG5tapKdof)" d="M184.889 99.556v241.777H71.11v-256h99.556c7.854 0 14.222 6.368 14.222 14.223" mask="url(#pbiSVGvCV5wclL)"/><path fill="url(#pbiSVGRvjwscVp)" d="M0 170.667v170.666h113.778V184.89c0-7.855-6.368-14.222-14.222-14.222z" mask="url(#pbiSVGvCV5wclL)"/></svg></g><rect width="56" height="56" rx="13" fill="none" stroke="#C060D0" stroke-width="2" opacity="0"><animate attributeName="opacity" values="0;.9;0" keyTimes="0;.2;1" dur="5s" begin="2.05s" repeatCount="indefinite"/></rect></g>
<g transform="translate(702.0,194.0)"><title>Teams</title><g transform="scale(1.1667)"><rect width="48" height="48" rx="11" fill="#242938"/><svg x="8.8" y="8.0" width="30.3" height="32.0" viewBox="4 4 36 38"><g fill="none"><path fill="url(#tmSVGzYzYEbfa)" d="M22 20h12a6 6 0 0 1 6 6v10a6 6 0 0 1-12 0V26a6 6 0 0 0-6-6"/><path fill="url(#tmSVGK4DZBb4u)" d="M8 24a6 6 0 0 1 6-6h8a6 6 0 0 1 6 6v12a6 6 0 0 0 6 6H18c-5.523 0-10-4.477-10-10z"/><path fill="url(#tmSVG3tEJhDMx)" fill-opacity=".7" d="M8 24a6 6 0 0 1 6-6h8a6 6 0 0 1 6 6v12a6 6 0 0 0 6 6H18c-5.523 0-10-4.477-10-10z"/><path fill="url(#tmSVGf5Dwgcch)" fill-opacity=".7" d="M8 24a6 6 0 0 1 6-6h8a6 6 0 0 1 6 6v12a6 6 0 0 0 6 6H18c-5.523 0-10-4.477-10-10z"/><path fill="url(#tmSVGVDcuBelk)" d="M33 18a5 5 0 1 0 0-10a5 5 0 0 0 0 10"/><path fill="url(#tmSVGkVVTXciy)" fill-opacity=".46" d="M33 18a5 5 0 1 0 0-10a5 5 0 0 0 0 10"/><path fill="url(#tmSVGTCrL3SuX)" fill-opacity=".4" d="M33 18a5 5 0 1 0 0-10a5 5 0 0 0 0 10"/><path fill="url(#tmSVGNePs0dBY)" d="M18 16a6 6 0 1 0 0-12a6 6 0 0 0 0 12"/><path fill="url(#tmSVGqlqwddcp)" fill-opacity=".6" d="M18 16a6 6 0 1 0 0-12a6 6 0 0 0 0 12"/><path fill="url(#tmSVGixopucdG)" fill-opacity=".5" d="M18 16a6 6 0 1 0 0-12a6 6 0 0 0 0 12"/><rect width="16" height="16" x="4" y="23" fill="url(#tmSVG8gv1oeSU)" rx="3.25"/><rect width="16" height="16" x="4" y="23" fill="url(#tmSVGjMSGNczM)" fill-opacity=".7" rx="3.25"/><path fill="#fff" d="M15.48 28.105h-2.448v7.466h-2.065v-7.466H8.52V26.43h6.96z"/><defs><radialGradient id="tmSVGzYzYEbfa" cx="0" cy="0" r="1" gradientTransform="matrix(13.4784 0 0 33.2694 39.797 22.174)" gradientUnits="userSpaceOnUse"><stop stop-color="#a98aff"/><stop offset=".14" stop-color="#8c75ff"/><stop offset=".565" stop-color="#5f50e2"/><stop offset=".9" stop-color="#3c2cb8"/></radialGradient><radialGradient id="tmSVGK4DZBb4u" cx="0" cy="0" r="1" gradientTransform="rotate(68.154 -7.716 14.713)scale(32.752 33.1231)" gradientUnits="userSpaceOnUse"><stop stop-color="#85c2ff"/><stop offset=".69" stop-color="#7588ff"/><stop offset="1" stop-color="#6459fe"/></radialGradient><radialGradient id="tmSVGf5Dwgcch" cx="0" cy="0" r="1" gradientTransform="rotate(113.326 8.093 17.645)scale(19.2186 15.4273)" gradientUnits="userSpaceOnUse"><stop stop-color="#bd96ff"/><stop offset=".687" stop-color="#bd96ff" stop-opacity="0"/></radialGradient><radialGradient id="tmSVGVDcuBelk" cx="0" cy="0" r="1" gradientTransform="matrix(0 -10 12.6216 0 33 11.571)" gradientUnits="userSpaceOnUse"><stop offset=".268" stop-color="#6868f7"/><stop offset="1" stop-color="#3923b1"/></radialGradient><radialGradient id="tmSVGkVVTXciy" cx="0" cy="0" r="1" gradientTransform="rotate(40.052 -.03 44.872)scale(7.14629 10.3363)" gradientUnits="userSpaceOnUse"><stop offset=".271" stop-color="#a1d3ff"/><stop offset=".813" stop-color="#a1d3ff" stop-opacity="0"/></radialGradient><radialGradient id="tmSVGTCrL3SuX" cx="0" cy="0" r="1" gradientTransform="rotate(-41.658 32.118 -43.42)scale(8.51275 20.8824)" gradientUnits="userSpaceOnUse"><stop stop-color="#e3acfd"/><stop offset=".816" stop-color="#9fa2ff" stop-opacity="0"/></radialGradient><radialGradient id="tmSVGNePs0dBY" cx="0" cy="0" r="1" gradientTransform="matrix(0 -12 15.146 0 18 8.286)" gradientUnits="userSpaceOnUse"><stop offset=".268" stop-color="#8282ff"/><stop offset="1" stop-color="#3923b1"/></radialGradient><radialGradient id="tmSVGqlqwddcp" cx="0" cy="0" r="1" gradientTransform="rotate(40.052 -3.155 21.416)scale(8.57554 12.4035)" gradientUnits="userSpaceOnUse"><stop offset=".271" stop-color="#a1d3ff"/><stop offset=".813" stop-color="#a1d3ff" stop-opacity="0"/></radialGradient><radialGradient id="tmSVGixopucdG" cx="0" cy="0" r="1" gradientTransform="rotate(-41.658 20.382 -26.516)scale(10.2153 25.0589)" gradientUnits="userSpaceOnUse"><stop stop-color="#e3acfd"/><stop offset=".816" stop-color="#9fa2ff" stop-opacity="0"/></radialGradient><radialGradient id="tmSVG8gv1oeSU" cx="0" cy="0" r="1" gradientTransform="rotate(45 -25.763 16.328)scale(22.6274)" gradientUnits="userSpaceOnUse"><stop offset=".047" stop-color="#688eff"/><stop offset=".947" stop-color="#230f94"/></radialGradient><radialGradient id="tmSVGjMSGNczM" cx="0" cy="0" r="1" gradientTransform="matrix(0 11.2 -13.0702 0 12 32.6)" gradientUnits="userSpaceOnUse"><stop offset=".571" stop-color="#6965f6" stop-opacity="0"/><stop offset="1" stop-color="#8f8fff"/></radialGradient><linearGradient id="tmSVG3tEJhDMx" x1="20.594" x2="20.594" y1="18" y2="42" gradientUnits="userSpaceOnUse"><stop offset=".801" stop-color="#6864f6" stop-opacity="0"/><stop offset="1" stop-color="#5149de"/></linearGradient></defs></g></svg></g><rect width="56" height="56" rx="13" fill="none" stroke="#C060D0" stroke-width="2" opacity="0"><animate attributeName="opacity" values="0;.9;0" keyTimes="0;.2;1" dur="5s" begin="2.30s" repeatCount="indefinite"/></rect></g>
<g transform="translate(702.0,266.0)"><title>React</title><svg xmlns="http://www.w3.org/2000/svg" width="56" height="56" fill="none" viewBox="0 0 256 256"><rect width="256" height="256" fill="#242938" rx="60"/><path fill="#00D8FF" d="M128.001 146.951C138.305 146.951 146.657 138.598 146.657 128.295C146.657 117.992 138.305 109.639 128.001 109.639C117.698 109.639 109.345 117.992 109.345 128.295C109.345 138.598 117.698 146.951 128.001 146.951Z"/><path fill-rule="evenodd" stroke="#00D8FF" stroke-width="8.911" d="M128.002 90.3633C153.05 90.3633 176.319 93.9575 193.864 99.9976C215.003 107.275 228 118.306 228 128.295C228 138.704 214.226 150.423 191.525 157.944C174.363 163.63 151.779 166.598 128.002 166.598C103.624 166.598 80.5389 163.812 63.1834 157.881C41.2255 150.376 28 138.506 28 128.295C28 118.387 40.4096 107.441 61.2515 100.175C78.8617 94.0353 102.705 90.3633 127.998 90.3633H128.002Z" clip-rule="evenodd"/><path fill-rule="evenodd" stroke="#00D8FF" stroke-width="8.911" d="M94.9811 109.438C107.495 87.7402 122.232 69.3783 136.23 57.1971C153.094 42.5206 169.144 36.7728 177.796 41.7623C186.813 46.9623 190.084 64.7496 185.259 88.1712C181.614 105.879 172.9 126.925 161.021 147.523C148.842 168.641 134.897 187.247 121.09 199.315C103.619 214.587 86.7284 220.114 77.8833 215.013C69.3003 210.067 66.0181 193.846 70.1356 172.161C73.6145 153.838 82.3451 131.349 94.977 109.438L94.9811 109.438Z" clip-rule="evenodd"/><path fill-rule="evenodd" stroke="#00D8FF" stroke-width="8.911" d="M95.0123 147.578C82.4633 125.904 73.9194 103.962 70.3531 85.7517C66.0602 63.8109 69.0954 47.0355 77.7401 42.0315C86.7485 36.8163 103.792 42.866 121.674 58.7437C135.194 70.7479 149.077 88.8052 160.99 109.383C173.204 130.481 182.358 151.856 185.919 169.844C190.425 192.608 186.778 210.001 177.941 215.116C169.367 220.08 153.676 214.825 136.945 200.427C122.809 188.263 107.685 169.468 95.0123 147.578Z" clip-rule="evenodd"/></svg><rect width="56" height="56" rx="13" fill="none" stroke="#C060D0" stroke-width="2" opacity="0"><animate attributeName="opacity" values="0;.9;0" keyTimes="0;.2;1" dur="5s" begin="2.55s" repeatCount="indefinite"/></rect></g>
</svg>